<svg width="103" height="45" viewBox="0 0 103 45" fill="none" xmlns="http://www.w3.org/2000/svg">
<path d="M2.124 32V5.72H6.768V32H2.124ZM13.3225 11.84C12.5545 11.84 11.8825 11.564 11.3065 11.012C10.7545 10.436 10.4785 9.764 10.4785 8.996C10.4785 8.228 10.7545 7.556 11.3065 6.98C11.8825 6.404 12.5545 6.116 13.3225 6.116C14.1145 6.116 14.7865 6.404 15.3385 6.98C15.9145 7.556 16.2025 8.228 16.2025 8.996C16.2025 9.764 15.9145 10.436 15.3385 11.012C14.7865 11.564 14.1145 11.84 13.3225 11.84ZM11.0185 32V14H15.6625V32H11.0185ZM29.9211 13.496C31.8891 13.496 33.5091 14.156 34.7811 15.476C36.0771 16.796 36.7251 18.62 36.7251 20.948V32H32.0811V21.524C32.0811 20.324 31.7571 19.412 31.1091 18.788C30.4611 18.14 29.5971 17.816 28.5171 17.816C27.3171 17.816 26.3571 18.188 25.6371 18.932C24.9171 19.676 24.5571 20.792 24.5571 22.28V32H19.9131V14H24.5571V16.016C25.6851 14.336 27.4731 13.496 29.9211 13.496ZM57.2864 32H51.8864L45.3344 23.828V32H40.6904V6.8H45.3344V21.92L51.5264 14H57.0704L49.8344 22.892L57.2864 32ZM59.6045 32V5.72H64.2485V32H59.6045ZM68.499 32V5.72H73.143V32H68.499ZM89.1295 14H94.0975L87.5455 32C86.6095 34.592 85.3615 36.464 83.8015 37.616C82.2655 38.792 80.3455 39.32 78.0415 39.2V34.88C79.2895 34.904 80.2735 34.64 80.9935 34.088C81.7375 33.536 82.3255 32.648 82.7575 31.424L75.3775 14H80.4535L85.1335 26.096L89.1295 14Z" fill="#006167"/>
<circle cx="99" cy="28" r="4" fill="#88B5B8"/>
</svg>
